HIERARCHY
ROOT Hips
{
	OFFSET -0.001795 -0.223333 0.028219
	CHANNELS 6 Xposition Yposition Zposition Zrotation Yrotation Xrotation 
	JOINT LeftUpLeg
	{
		OFFSET 0.069520 -0.091406 -0.006815
		CHANNELS 3 Zrotation Yrotation Xrotation
		JOINT LeftLeg
		{
			OFFSET 0.034277 -0.375199 -0.004496
			CHANNELS 3 Zrotation Yrotation Xrotation
			JOINT LeftFoot
			{
				OFFSET -0.013596 -0.397961 -0.043693
				CHANNELS 3 Zrotation Yrotation Xrotation
				JOINT LeftToe
				{
					OFFSET 0.026358 -0.055791 0.119288
					CHANNELS 3 Zrotation Yrotation Xrotation
					End Site
					{
						OFFSET 0.000000 0.000000 0.000000
					}
				}
			}
		}
	}
	JOINT RightUpLeg
	{
		OFFSET -0.067670 -0.090522 -0.004320
		CHANNELS 3 Zrotation Yrotation Xrotation
		JOINT RightLeg
		{
			OFFSET -0.038290 -0.382569 -0.008850
			CHANNELS 3 Zrotation Yrotation Xrotation
			JOINT RightFoot
			{
				OFFSET 0.015774 -0.398415 -0.042312
				CHANNELS 3 Zrotation Yrotation Xrotation
				JOINT RightToe
				{
					OFFSET -0.025372 -0.048144 0.123348
					CHANNELS 3 Zrotation Yrotation Xrotation
					End Site
					{
						OFFSET 0.000000 0.000000 0.000000
					}
				}
			}
		}
	}
	JOINT Spine
	{
		OFFSET -0.002533 0.108963 -0.026696
		CHANNELS 3 Zrotation Yrotation Xrotation
		JOINT Spine1
		{
			OFFSET 0.005487 0.135180 0.001092
			CHANNELS 3 Zrotation Yrotation Xrotation
			JOINT Spine2
			{
				OFFSET 0.001457 0.052922 0.025425
				CHANNELS 3 Zrotation Yrotation Xrotation
				JOINT Neck
				{
					OFFSET -0.002778 0.213870 -0.042857
					CHANNELS 3 Zrotation Yrotation Xrotation
					JOINT Head
					{
						OFFSET 0.005152 0.064970 0.051349
						CHANNELS 3 Zrotation Yrotation Xrotation
						End Site
						{
							OFFSET 0.000000 0.000000 0.000000
						}
					}
				}
				JOINT LeftShoulder
				{
					OFFSET 0.078845 0.121749 -0.034090
					CHANNELS 3 Zrotation Yrotation Xrotation
					JOINT LeftArm
					{
						OFFSET 0.090977 0.030469 -0.008868
						CHANNELS 3 Zrotation Yrotation Xrotation
						JOINT LeftForeArm
						{
							OFFSET 0.259612 -0.012772 -0.027456
							CHANNELS 3 Zrotation Yrotation Xrotation
							JOINT LeftHand
							{
								OFFSET 0.249234 0.008986 -0.001171
								CHANNELS 3 Zrotation Yrotation Xrotation
								End Site
								{
									OFFSET 0.000000 0.000000 0.000000
								}
							}
						}
					}
				}
				JOINT RightShoulder
				{
					OFFSET -0.081759 0.118833 -0.038615
					CHANNELS 3 Zrotation Yrotation Xrotation
					JOINT RightArm
					{
						OFFSET -0.096012 0.032551 -0.009143
						CHANNELS 3 Zrotation Yrotation Xrotation
						JOINT RightForeArm
						{
							OFFSET -0.253742 -0.013329 -0.021401
							CHANNELS 3 Zrotation Yrotation Xrotation
							JOINT RightHand
							{
								OFFSET -0.255298 0.007772 -0.005559
								CHANNELS 3 Zrotation Yrotation Xrotation
								End Site
								{
									OFFSET 0.000000 0.000000 0.000000
								}
							}
						}
					}
				}
			}
		}
	}
}
MOTION
Frames: 16
Frame Time: 0.050000
0.017707 0.969696 -0.002351 0.403825 -2.050920 3.212086 -1.316212 0.159946 1.322957 0.112933 0.356810 -10.134349 7.787145 17.241054 19.648656 0.000000 0.000000 0.000000 -5.203963 0.391388 -3.844950 2.760969 -0.349380 -4.958771 -1.410828 -10.617956 23.318146 0.000000 0.000000 0.000000 4.728475 -2.824537 35.227817 -6.375405 1.976718 -27.346930 -3.240199 5.267789 26.378232 14.546844 -4.410174 -35.438030 0.000000 0.000000 0.000000 -25.739611 -27.549079 14.096151 -33.146129 -17.174576 -0.945138 -0.392734 -20.877271 0.770399 0.000000 0.000000 0.000000 35.496711 9.402056 6.571475 38.039799 17.656224 -1.121931 -1.416688 25.905933 0.807725 0.000000 0.000000 0.000000 
0.017841 0.969898 -0.001013 0.219743 -2.352524 4.127444 -1.339969 0.030975 0.071522 0.254062 0.361792 -10.284904 8.885468 18.705038 21.473823 0.000000 0.000000 0.000000 -5.040307 0.462446 -4.872640 2.906101 -0.356871 -5.169910 -1.631988 -11.159957 24.179401 0.000000 0.000000 0.000000 4.744409 -2.903214 36.451435 -6.510886 1.979340 -27.650595 -2.948440 5.553746 26.546257 14.243028 -4.222021 -35.494520 0.000000 0.000000 0.000000 -26.220862 -27.902584 14.408630 -32.304240 -17.674862 -0.835001 0.249405 -20.741594 0.649305 0.000000 0.000000 0.000000 35.649579 9.506120 6.744109 37.028733 17.978900 -1.093438 -1.611581 26.294675 0.773095 0.000000 0.000000 0.000000 
0.017419 0.969983 0.000788 0.152153 -2.518870 4.940489 -1.297398 -0.065753 -0.864454 0.306226 0.364031 -10.329422 9.347217 19.285121 22.384229 0.000000 0.000000 0.000000 -4.928562 0.530507 -5.856941 2.841884 -0.350095 -5.070969 -1.690785 -11.373474 24.712839 0.000000 0.000000 0.000000 4.782817 -2.981992 37.401393 -6.592797 1.975670 -27.729193 -2.943303 5.340422 26.223290 14.341048 -4.413257 -34.893325 0.000000 0.000000 0.000000 -26.761825 -27.853296 14.614266 -31.443358 -17.832563 -0.816981 0.547841 -20.383661 0.586646 0.000000 0.000000 0.000000 36.130935 10.010960 7.019077 35.503838 17.888903 -1.097475 -1.216789 27.077768 0.852088 0.000000 0.000000 0.000000 
0.016611 0.969651 0.003145 0.066388 -2.684794 5.605939 -1.077638 -0.140240 -1.577523 0.258087 0.363443 -10.257426 9.512164 19.472917 22.841988 0.000000 0.000000 0.000000 -4.822131 0.584511 -6.597462 2.937677 -0.353949 -5.137683 -1.918775 -11.837276 25.321632 0.000000 0.000000 0.000000 4.899017 -3.074782 38.213282 -6.650361 1.967383 -28.010501 -2.935431 5.205421 26.309069 14.059426 -4.353141 -34.605201 0.000000 0.000000 0.000000 -26.918243 -27.989492 14.848632 -30.848672 -18.285329 -0.756073 0.890347 -20.195629 0.522160 0.000000 0.000000 0.000000 36.188221 10.011814 6.931421 34.930576 17.686737 -1.145029 -0.963029 28.035520 0.939850 0.000000 0.000000 0.000000 
0.015562 0.969341 0.006051 -0.052785 -2.939387 5.910194 -0.825150 -0.179912 -1.955069 0.029902 0.360761 -10.016542 10.080032 20.150663 23.232402 0.000000 0.000000 0.000000 -4.693413 0.620881 -7.066743 2.993654 -0.350255 -4.776834 -1.864618 -11.829606 25.431988 0.000000 0.000000 0.000000 4.914243 -3.083087 38.644816 -6.592396 1.943313 -28.131469 -2.917432 4.946951 26.098321 13.989723 -4.448772 -34.195989 0.000000 0.000000 0.000000 -27.045493 -27.641422 14.801047 -30.298708 -18.131144 -0.827311 0.803227 -20.296146 0.539645 0.000000 0.000000 0.000000 36.572885 10.061704 6.803652 33.962541 17.234158 -1.220640 -0.102297 28.849980 1.150965 0.000000 0.000000 0.000000 
0.014792 0.968828 0.009212 -0.146839 -3.186279 6.217889 -0.570334 -0.227211 -2.428174 -0.141289 0.345737 -9.470308 10.357062 20.465181 23.276556 0.000000 0.000000 0.000000 -4.463724 0.655077 -7.458631 2.955615 -0.342675 -4.501494 -2.101421 -12.204925 25.377009 0.000000 0.000000 0.000000 4.936217 -3.066120 38.705589 -6.455270 1.917908 -27.826036 -2.845979 4.696319 25.690097 13.645369 -4.327668 -34.088391 0.000000 0.000000 0.000000 -26.803341 -27.399711 14.733782 -30.239684 -17.961631 -0.874270 0.970632 -20.688053 0.523256 0.000000 0.000000 0.000000 36.799831 10.106084 6.651293 33.332872 16.734054 -1.272104 0.743646 29.099997 1.342619 0.000000 0.000000 0.000000 
0.014567 0.968238 0.012440 -0.187576 -3.469182 6.303592 -0.364157 -0.261357 -2.781607 -0.398338 0.335745 -8.934694 10.872662 21.054305 23.844406 0.000000 0.000000 0.000000 -4.488412 0.677012 -7.751320 3.157145 -0.344865 -3.831007 -2.190943 -12.301391 24.877943 0.000000 0.000000 0.000000 5.026720 -3.062135 38.730810 -6.428091 1.910173 -27.827727 -2.672434 4.555145 25.539235 13.611473 -4.382197 -33.935090 0.000000 0.000000 0.000000 -26.683895 -27.295905 14.749185 -29.932849 -18.020866 -0.885660 0.769987 -20.885010 0.563276 0.000000 0.000000 0.000000 36.808804 10.241123 6.598900 32.949581 16.139780 -1.362982 1.256803 28.936029 1.434415 0.000000 0.000000 0.000000 
0.014834 0.967560 0.015543 -0.131006 -3.880841 6.384892 -0.497083 -0.296490 -3.135223 -0.326686 0.311054 -8.279462 11.370598 21.606006 24.197444 0.000000 0.000000 0.000000 -4.728592 0.688124 -7.926863 3.487572 -0.359189 -3.538365 -2.260433 -12.446884 24.704417 0.000000 0.000000 0.000000 4.936544 -2.942108 38.349745 -6.137095 1.856137 -27.469604 -2.571692 4.681079 25.489254 13.378547 -4.208730 -34.242570 0.000000 0.000000 0.000000 -26.353503 -27.117251 14.601646 -30.226623 -17.940688 -0.908136 1.161980 -21.401513 0.509803 0.000000 0.000000 0.000000 36.848041 10.361589 6.651356 32.507947 15.855624 -1.417161 1.673081 28.383107 1.485653 0.000000 0.000000 0.000000 
0.015338 0.966994 0.018517 -0.021527 -3.986377 6.286228 -0.513092 -0.310341 -3.274838 -0.523382 0.297494 -7.636741 11.524742 21.781715 24.235631 0.000000 0.000000 0.000000 -5.006772 0.682550 -7.927668 3.708810 -0.370588 -3.258077 -2.409759 -12.704324 24.874758 0.000000 0.000000 0.000000 5.025212 -2.933636 37.994493 -5.996819 1.827334 -27.503157 -2.447183 4.855528 25.596660 13.348173 -4.172587 -34.270800 0.000000 0.000000 0.000000 -26.070247 -27.046944 14.462274 -30.557260 -17.784719 -0.938444 1.145427 -21.876974 0.526819 0.000000 0.000000 0.000000 36.635048 10.223457 6.591292 32.582485 15.566272 -1.501801 1.980423 27.613907 1.506298 0.000000 0.000000 0.000000 
0.015845 0.966787 0.021247 0.129734 -3.961710 6.079760 -0.420063 -0.305624 -3.230597 -0.840401 0.302785 -7.319192 11.475533 21.698700 24.804603 0.000000 0.000000 0.000000 -5.189763 0.664444 -7.728333 3.811626 -0.376337 -2.969425 -2.735858 -13.137164 24.736604 0.000000 0.000000 0.000000 4.999263 -2.862835 37.099958 -5.543756 1.751086 -26.920917 -2.584607 5.085898 25.321591 13.350942 -4.063665 -34.607507 0.000000 0.000000 0.000000 -26.069738 -26.915971 14.277093 -30.966090 -17.309243 -0.999102 1.101841 -22.552636 0.554482 0.000000 0.000000 0.000000 36.849399 10.192381 6.680381 32.580446 14.838055 -1.672161 2.182275 27.406179 1.534208 0.000000 0.000000 0.000000 
0.016464 0.967277 0.023758 0.140257 -3.804443 5.980123 -0.169763 -0.320224 -3.413272 -1.053564 0.300861 -6.898701 11.224894 21.377543 25.678943 0.000000 0.000000 0.000000 -5.197939 0.642824 -7.410191 3.786254 -0.375566 -2.835068 -2.788671 -13.123380 24.362904 0.000000 0.000000 0.000000 5.064003 -2.865770 36.525114 -5.574100 1.754644 -27.308538 -2.220665 5.109599 25.851438 13.271628 -3.906926 -35.290273 0.000000 0.000000 0.000000 -26.160520 -26.751588 14.178799 -31.313834 -16.925199 -1.107949 1.030171 -23.007594 0.582492 0.000000 0.000000 0.000000 36.452276 9.999022 6.558221 33.204055 14.825025 -1.721645 2.288689 26.957990 1.539448 0.000000 0.000000 0.000000 
0.017429 0.968353 0.026034 0.133259 -3.605734 5.968196 0.006753 -0.330813 -3.552875 -1.193864 0.302505 -6.708974 10.929918 21.019820 26.611001 0.000000 0.000000 0.000000 -5.164066 0.630042 -7.222094 3.624675 -0.366335 -2.828173 -2.812520 -13.163657 24.639717 0.000000 0.000000 0.000000 5.156564 -2.837960 35.286178 -5.341600 1.717026 -27.023019 -2.258234 5.281661 25.870984 13.245062 -3.760846 -35.783455 0.000000 0.000000 0.000000 -26.004740 -26.297534 13.764922 -31.938452 -16.161543 -1.260543 0.664438 -23.829859 0.682141 0.000000 0.000000 0.000000 36.462128 9.661280 6.417485 33.435469 14.529906 -1.821496 2.223087 26.832944 1.524629 0.000000 0.000000 0.000000 
0.019049 0.969812 0.028634 0.191944 -3.386111 5.809310 0.127427 -0.319174 -3.441855 -1.324671 0.304723 -6.544009 10.234522 20.219715 27.363822 0.000000 0.000000 0.000000 -5.175464 0.601941 -6.811155 3.475312 -0.358643 -2.922693 -3.051066 -13.517464 25.033051 0.000000 0.000000 0.000000 5.244671 -2.795000 33.943059 -5.473335 1.749862 -26.891227 -2.088244 5.285718 26.148182 13.024330 -3.653607 -35.814700 0.000000 0.000000 0.000000 -26.285980 -25.759945 13.443201 -32.566132 -15.231365 -1.488724 0.379361 -24.621903 0.771659 0.000000 0.000000 0.000000 36.252859 9.146911 6.058751 34.007359 13.969883 -1.993779 2.734441 27.105034 1.670329 0.000000 0.000000 0.000000 
0.021468 0.971192 0.031863 0.207356 -3.294856 5.406397 0.111587 -0.270090 -2.900198 -1.393305 0.310759 -6.636587 9.914533 19.856217 28.265849 0.000000 0.000000 0.000000 -5.150884 0.560111 -6.172569 3.396010 -0.355631 -3.062664 -3.544442 -14.278828 25.701482 0.000000 0.000000 0.000000 5.382244 -2.694147 31.944283 -5.614408 1.791993 -26.605329 -2.011434 5.345035 26.505126 12.705191 -3.479798 -35.991904 0.000000 0.000000 0.000000 -26.349210 -24.777213 12.801287 -33.600243 -14.103749 -1.803898 -0.588064 -25.316850 1.015138 0.000000 0.000000 0.000000 36.350479 8.622719 5.698177 34.460767 13.215722 -2.223972 3.175305 27.501707 1.810754 0.000000 0.000000 0.000000 
0.024355 0.971931 0.035930 0.204752 -2.960277 4.668199 0.181747 -0.194066 -2.072811 -1.546978 0.312285 -6.385522 9.245644 19.140624 28.452902 0.000000 0.000000 0.000000 -5.097974 0.488266 -5.110649 3.179206 -0.347085 -3.338779 -4.135927 -15.152764 26.782583 0.000000 0.000000 0.000000 5.575383 -2.657143 30.464746 -5.854830 1.852147 -26.812064 -1.915505 5.257040 27.065203 12.315408 -3.344558 -35.824608 0.000000 0.000000 0.000000 -26.447119 -23.897138 12.231761 -34.524214 -13.009472 -2.142287 -1.181206 -26.053209 1.189303 0.000000 0.000000 0.000000 36.065728 7.790144 5.097889 35.498794 12.682984 -2.442740 3.529148 27.888594 1.953335 0.000000 0.000000 0.000000 
0.027362 0.971997 0.040501 0.297650 -2.690576 3.976296 0.101785 -0.098391 -1.033729 -1.743295 0.324923 -6.477664 8.751090 18.618430 28.406921 0.000000 0.000000 0.000000 -5.207879 0.408774 -3.867262 3.021678 -0.341293 -3.519882 -4.416309 -15.451871 26.512940 0.000000 0.000000 0.000000 5.740834 -2.560213 28.574012 -6.217748 1.952773 -26.503831 -1.914980 4.973988 27.066860 12.072338 -3.280515 -35.684111 0.000000 0.000000 0.000000 -26.464016 -22.817780 11.586421 -35.338511 -11.989086 -2.457197 -2.195877 -26.378974 1.449483 0.000000 0.000000 0.000000 36.229369 7.165717 4.541721 36.258766 11.973566 -2.635835 4.087083 28.170448 2.123529 0.000000 0.000000 0.000000 
